<svg xmlns="http://www.w3.org/2000/svg" xmlns:xlink="http://www.w3.org/1999/xlink" viewBox="0 0 346.47 141.15"><defs><style>.a{isolation:isolate;}.b{fill:url(#a);}.c{fill:#0a0a0a;}.d,.i,.j{fill:#bf3737;}.e{fill:url(#b);}.f{opacity:0.66;}.g{fill:#fff;}.h{fill:url(#c);}.i{opacity:0.4;mix-blend-mode:multiply;}.j{font-size:32px;font-family:Montserrat-Black, Montserrat;}.j,.n{letter-spacing:-0.11em;}.k{letter-spacing:-0.16em;}.l{letter-spacing:-0.11em;}.m{letter-spacing:-0.09em;}.o{letter-spacing:-0.11em;}.p{letter-spacing:-0.12em;}.q{letter-spacing:-0.12em;}.r{letter-spacing:-0.17em;}.s{letter-spacing:-0.24em;}.t{letter-spacing:-0.09em;}</style><radialGradient id="a" cx="70.18" cy="70.58" r="63.38" gradientUnits="userSpaceOnUse"><stop offset="0.22" stop-color="#fff"/><stop offset="0.28" stop-color="#fcfcfc"/><stop offset="0.31" stop-color="#f4f4f4"/><stop offset="0.34" stop-color="#e6e6e6"/><stop offset="0.37" stop-color="#d1d1d1"/><stop offset="0.4" stop-color="#b7b7b7"/><stop offset="0.42" stop-color="#979797"/><stop offset="0.44" stop-color="#717171"/><stop offset="0.45" stop-color="#555"/><stop offset="0.47" stop-color="#5c5c5c"/><stop offset="0.51" stop-color="#727272"/><stop offset="0.56" stop-color="#818181"/><stop offset="0.61" stop-color="#8a8a8a"/><stop offset="0.69" stop-color="#8d8d8d"/><stop offset="0.73" stop-color="#888"/><stop offset="0.79" stop-color="#797979"/><stop offset="0.85" stop-color="#606060"/><stop offset="0.91" stop-color="#3d3d3d"/><stop offset="0.98" stop-color="#111"/><stop offset="1"/></radialGradient><radialGradient id="b" cx="69.95" cy="70.54" r="66.98" gradientUnits="userSpaceOnUse"><stop offset="0.44" stop-color="#bf3737"/><stop offset="0.44" stop-color="#bf3939"/><stop offset="0.48" stop-color="#cb6d6d"/><stop offset="0.51" stop-color="#d59999"/><stop offset="0.55" stop-color="#dcbaba"/><stop offset="0.58" stop-color="#e2d2d2"/><stop offset="0.61" stop-color="#e5e1e1"/><stop offset="0.64" stop-color="#e6e6e6"/><stop offset="0.68" stop-color="#e4dcdc"/><stop offset="0.75" stop-color="#dec2c2"/><stop offset="0.84" stop-color="#d59797"/><stop offset="0.94" stop-color="#c85d5d"/><stop offset="1" stop-color="#bf3636"/></radialGradient><radialGradient id="c" cx="69.93" cy="70.53" r="37" gradientUnits="userSpaceOnUse"><stop offset="0.68" stop-color="#f2f2f2"/><stop offset="0.71" stop-color="#f0ecec"/><stop offset="0.76" stop-color="#ecdbdb"/><stop offset="0.82" stop-color="#e4c0c0"/><stop offset="0.88" stop-color="#da9999"/><stop offset="0.94" stop-color="#cc6868"/><stop offset="1" stop-color="#bf3737"/></radialGradient></defs><title>1 - RCRLogo</title><g class="a"><path class="b" d="M118.31,38.44,120,36.38a3.94,3.94,0,0,0,0-4.89c-.75-1-1.5-1.92-1.77-2.23s-.37-.43-.55-.64c-.64-.73-1.3-1.44-2-2.14-.24-.25-.47-.51-.72-.75l-.4-.39c-7.78-3.22-12.24-2.86-12.24-2.86l.75-2.58a4,4,0,0,0-1.79-4.52l-.91-.51c-.24-.14-.49-.26-.74-.39-.81-.44-1.64-.83-2.46-1.23l-.26-.13L96.61,13c-.67-.31-1.34-.6-2-.87l-.72-.31c-8.41,0-12.39,2-12.39,2L81.2,11.2a4,4,0,0,0-3.45-3.49c-1.27-.15-2.54-.3-3-.33L73.41,7.3c-1,0-1.94-.09-2.92-.11h-.14l-.74,0c-7.8,3.22-10.7,6.63-10.7,6.63L57.63,11.5a4,4,0,0,0-4.52-1.9c-1.2.33-2.39.67-2.87.83s-1.05.36-1.57.55-1.21.44-1.8.68-1.06.43-1.58.66C39.39,18.23,38,22.46,38,22.46l-2-1.64a3.94,3.94,0,0,0-4.9,0c-.95.74-1.88,1.47-2.19,1.74l-.64.55c-.73.65-1.44,1.3-2.14,2l-.75.72-.45.47c-3.2,7.74-2.85,12.19-2.85,12.19l-2.51-.74A4,4,0,0,0,15,39.52c-.6,1-1.18,2.06-1.31,2.33l-.27.54c-.17.34-.34.68-.5,1s-.36.77-.53,1.16c-.36.8-.69,1.62-1,2.44,0,8.32,2,12.27,2,12.27l-2.65.28A3.94,3.94,0,0,0,7.29,63a61.39,61.39,0,0,0-.47,6.92c0,.17,0,.33,0,.5s0,.53,0,.8C10,79,13.43,81.86,13.43,81.86l-2.31,1.27a3.93,3.93,0,0,0-1.91,4.51c.34,1.21.67,2.38.78,2.72l.28.82.33.93c.21.6.44,1.2.67,1.8h0c.2.51.42,1,.63,1.52,5.92,5.91,10.15,7.27,10.15,7.27l-1.65,2.06a4,4,0,0,0,0,4.9c.75,1,1.5,1.91,1.77,2.23l.55.63c.64.73,1.3,1.44,2,2.14.24.25.47.51.72.75l.4.39C33.57,119,38,118.68,38,118.68l-.76,2.57a4,4,0,0,0,1.8,4.52c.37.22.7.4.91.51.51.28,1,.54,1.54.85a7.7,7.7,0,0,0,1.39.66c.18.06.35.16.53.24l.32.15c.68.31,1.38.6,2.08.89l.66.28c8.41,0,12.39-2,12.39-2l.28,2.64a4,4,0,0,0,3.45,3.49c1.27.15,2.54.3,3,.34l1.31.07c1,.05,2,.09,2.92.11H70l.74,0c7.8-3.22,10.7-6.63,10.7-6.63l1.28,2.34a4,4,0,0,0,4.52,1.91c1.2-.34,2.38-.68,2.87-.84s1.05-.36,1.56-.55,1.21-.44,1.81-.68,1-.43,1.58-.66c5.9-5.91,7.26-10.14,7.26-10.14l2,1.65a4,4,0,0,0,4.9,0c.95-.75,1.88-1.48,2.19-1.75l.64-.55c.73-.65,1.44-1.3,2.14-2l.75-.72.45-.47c3.2-7.74,2.85-12.19,2.85-12.19l2.51.74a4,4,0,0,0,4.53-1.83c.6-1,1.17-2.06,1.31-2.33l.27-.54c.17-.34.34-.68.5-1s.36-.77.53-1.16c.36-.8.69-1.62,1-2.44,0-8.32-2-12.27-2-12.27l2.65-.28a4,4,0,0,0,3.49-3.44,63.82,63.82,0,0,0,.47-6.92c0-.17,0-.33,0-.5s0-.53,0-.8c-3.21-7.74-6.6-10.63-6.6-10.63L129.25,58a4,4,0,0,0,1.91-4.51c-.34-1.21-.67-2.38-.78-2.72L130.1,50l-.33-.93c-.22-.6-.44-1.2-.67-1.8h0c-.2-.51-.42-1-.64-1.52C122.54,39.81,118.31,38.44,118.31,38.44Z"/><path class="c" d="M119.15,39.29c4.33-5.38,2.4-8.35-2.1-13.13-3.36-3.57-9.81-5.17-14.71-4.88l1.16,1.51c1.8-6.17-.68-8.28-6.29-10.85-4.85-2.23-11.49-1.48-16.33.86l1.8,1c-.22-2-.2-4.29-1.75-5.83-2.25-2.23-6.8-2-9.7-2-4.57.07-10.11,3.55-13.17,7l1.88.24c-.94-1.72-1.75-3.62-3.63-4.51-2.94-1.39-7.07.7-9.76,1.77-4.29,1.7-8.17,7.3-9.68,11.64l2-.53c-5.35-4.3-8.32-2.39-13.08,2.09-3.6,3.39-5.21,9.79-4.93,14.73l1.52-1.16c-1.95-.57-4-1.4-6-.49-2.81,1.29-4.11,5.16-5.25,7.8-1.88,4.34-.79,11,1.28,15.31l1-1.8c-2.06.22-4.25.2-5.84,1.75C5.32,62,5.43,67.1,5.62,69.93c.29,4.4,3.61,9.8,7,12.78l.25-1.88c-6.12,3.34-5.17,7.4-2.71,13.41,1.73,4.25,7.29,8.12,11.62,9.63l-.53-2c-4.32,5.37-2.39,8.35,2.11,13.12,3.36,3.58,9.81,5.17,14.71,4.89l-1.16-1.52c-1.88,6.41,1,8.49,6.8,11.08,4.62,2,11.25,1.12,15.82-1.09l-1.8-1c.22,2,.2,4.29,1.75,5.83,2.25,2.23,6.8,2,9.7,2,4.57-.07,10.11-3.55,13.17-7l-1.88-.25c.94,1.72,1.75,3.62,3.63,4.51,2.94,1.39,7.07-.7,9.76-1.77,4.28-1.7,8.17-7.3,9.68-11.64l-2,.53c5.35,4.3,8.32,2.39,13.08-2.09,3.6-3.39,5.21-9.79,4.93-14.73L118,103.88c2,.57,4,1.4,6,.49,2.81-1.29,4.11-5.16,5.25-7.8,1.88-4.34.79-11-1.28-15.31l-1,1.8c2.06-.22,4.25-.2,5.84-1.74,2.27-2.2,2.16-7.27,2-10.1-.29-4.4-3.61-9.8-7-12.78l-.25,1.88c6.12-3.34,5.16-7.4,2.71-13.41-1.73-4.24-7.29-8.12-11.63-9.63-1.46-.51-2.09,1.81-.63,2.31a22.79,22.79,0,0,1,8.28,5.68c3.24,3.51,4.85,10.37.06,13a1.21,1.21,0,0,0-.24,1.89A23.18,23.18,0,0,1,131,67.29c2.19,4.52,2.13,12.7-4.09,13.37a1.22,1.22,0,0,0-1,1.81,21.59,21.59,0,0,1,1.78,9c-.08,4.89-3.13,11.86-9.07,10.13a1.2,1.2,0,0,0-1.51,1.15,23.77,23.77,0,0,1-1.85,9.34c-1.7,4.51-7.6,9.38-12.07,5.78a1.21,1.21,0,0,0-2,.53A22.35,22.35,0,0,1,96.08,126c-3.59,3.51-10.66,6-13.58.68a1.21,1.21,0,0,0-1.89-.24,23.51,23.51,0,0,1-8,5.33c-4.43,2-11.94,1.2-12.55-4.48a1.22,1.22,0,0,0-1.81-1c-5.74,2.77-22.07,2.87-19.09-7.29A1.2,1.2,0,0,0,38,117.48a24.19,24.19,0,0,1-9.38-1.86c-4.51-1.69-9.32-7.6-5.74-12.06a1.21,1.21,0,0,0-.53-2,22.79,22.79,0,0,1-8.28-5.68c-3.24-3.51-4.85-10.36-.06-13A1.21,1.21,0,0,0,14.28,81a23,23,0,0,1-4.94-7.15c-2.2-4.52-2.13-12.7,4.09-13.37a1.22,1.22,0,0,0,1-1.81,21.43,21.43,0,0,1-1.78-9c.08-4.89,3.13-11.86,9.06-10.12a1.21,1.21,0,0,0,1.52-1.16,23.8,23.8,0,0,1,1.85-9.34c1.7-4.51,7.6-9.38,12.07-5.78a1.22,1.22,0,0,0,2-.53,22.07,22.07,0,0,1,5.11-7.65c3.58-3.51,10.65-6,13.58-.68a1.2,1.2,0,0,0,1.88.24,23.69,23.69,0,0,1,8-5.33c4.42-2,11.94-1.2,12.55,4.48a1.22,1.22,0,0,0,1.81,1c5.65-2.74,22.08-2.93,19.09,7.28a1.21,1.21,0,0,0,1.16,1.52,24,24,0,0,1,9.38,1.85c4.51,1.69,9.32,7.6,5.74,12.06C116.5,38.78,118.19,40.49,119.15,39.29Z"/><polygon class="d" points="70.45 140.47 51.69 114.23 20.54 120.16 26.41 88.79 0.66 70.09 26.56 52.83 20.63 21.68 52 27.55 70.21 0.68 88.24 27 119.4 21.08 113.53 52.45 139.71 70.38 113.38 88.41 119.3 119.56 87.94 113.69 70.45 140.47"/><polygon class="e" points="70.18 133.51 53.29 109.87 25.22 115.21 30.5 86.95 7.31 70.1 30.64 54.55 25.3 26.48 53.56 31.77 69.97 7.56 86.22 31.28 114.28 25.94 109 54.2 132.59 70.36 108.86 86.6 114.2 114.67 85.94 109.39 70.18 133.51"/><path class="d" d="M70,12.62,84.54,33.89l.37.54.64-.12,25.17-4.78L106,54.87l-.12.64.53.37,21.15,14.49L106.27,84.94l-.54.37.12.64,4.78,25.16-25.34-4.74-.66-.12-.36.56L70.13,128.45,55,107.24l-.37-.52-.63.12L28.8,111.62l4.75-25.35.11-.62-.51-.37L12.33,70.16,33.25,56.22l.55-.37-.13-.65L28.89,30l25.34,4.74.65.12.37-.54L70,12.62m0-1.77L54.42,33.79l-26.79-5,5.06,26.6L10.58,70.12l22,16-5,26.78,26.61-5.05,16,22.41L85.1,107.36l26.79,5-5.06-26.61,22.48-15.39L107,55.06l5-26.79-26.6,5.06L70,10.85Z"/><g class="f"><path class="g" d="M70,10.85l15.4,22.48L112,28.27l-5,26.79,22.35,15.31L106.83,85.76l5.06,26.61-26.79-5L70.17,130.23l-16-22.41-26.61,5.05,5-26.78-22-16L32.69,55.38l-5.06-26.6,26.79,5L70,10.85m0-3.56L68.31,9.72,53.5,31.58,28,26.81l-2.88-.53.55,2.87,4.81,25.31-21,14L7.08,70.05,9.4,71.74,30.36,87l-4.77,25.55-.54,2.88,2.88-.55L53.27,110l15.27,21.37,1.71,2.38,1.6-2.45,14.2-21.75,25.47,4.76,2.88.54-.55-2.88L109,86.67,130.44,72l2.41-1.65-2.41-1.65L109.17,54.14l4.77-25.5.53-2.88-2.87.55L86.28,31.12,71.62,9.72,70,7.29Z"/></g><circle class="d" cx="70.18" cy="70.58" r="35.06"/><circle class="h" cx="69.93" cy="70.53" r="31.76"/><path class="i" d="M92.92,85.2A30.51,30.51,0,0,0,96.18,85l-3.65-1.8s-1.13-.28-.17-.51l-2.08-.9s-.9-.45.11-.84A3.92,3.92,0,0,0,88,80.65c-1.64.17-3.66-1.8-3.66-1.8A4.32,4.32,0,0,1,87.52,76a4.35,4.35,0,0,0,1.69-.28s-1.82-.19-.28-.71,2.55-.49,2.81-.79c0,0-1.58-.26,1.38-1.35a12.54,12.54,0,0,0,2-.67s-3-.84-4.35-1.35c-1.61-.6-2-.9-.45-2.4s1.28-1.94,1.28-1.94a26,26,0,0,0,2.21-2,6.66,6.66,0,0,1-2-.41,10.89,10.89,0,0,1,1.58-2.81s-1.28.33-.3-.94a2.12,2.12,0,0,0,.6-.82s-.6.45-.12-.49a24.15,24.15,0,0,0,1.09-2.81,14.45,14.45,0,0,0-2.06,1.8,3,3,0,0,1-1.54,1s-.48.26-.37-.37l-1.24.86s-1.38,1.42-1.23-.11A3.31,3.31,0,0,0,87,60.63s-2.25,2.32-2.21,1a2.31,2.31,0,0,1-.15-1.16,12.29,12.29,0,0,0-2.21,2.21,14.83,14.83,0,0,1-3.07,3.41,11.52,11.52,0,0,0-2.4,1,8.06,8.06,0,0,1,.49-5.32l.87-2.17a3.38,3.38,0,0,0,.25-1.3h0a1.14,1.14,0,0,1-.9.19,6.57,6.57,0,0,1,1-2.67,2.19,2.19,0,0,0,.32-1,.59.59,0,0,1,.05-.19s-.19.37-.75.18A4.82,4.82,0,0,1,79,53.13a.7.7,0,0,1,0-.52s-.71.41-.11-.56.19-1.61.94-3.19a13.83,13.83,0,0,0-3.08,2.25s-.26,0-.15-.69a3.28,3.28,0,0,0-1.08,1.18c-.27.63-2,1-2,1a4.5,4.5,0,0,1-.15-2.76s-.49.88-.34-.58,0-.93,0-.93.11-1.17-.23-1.54A1.75,1.75,0,0,1,71.32,48a7.06,7.06,0,0,1-.22-2.69s-.49.45-.83.22a2.33,2.33,0,0,1,0-1.27.47.47,0,0,1-.41,0,2.6,2.6,0,0,0-.22-1.16,2.15,2.15,0,0,1,0-1.36,1.34,1.34,0,0,0-.72,1.17A1.34,1.34,0,0,1,68.47,44a.4.4,0,0,1,0-.37,4,4,0,0,0-.86,1.64s-.33.08-.6-.6c0,0-.18,2.59-.78,3.41a5.33,5.33,0,0,1-1.88-1.56,10.68,10.68,0,0,0,.3,2.46s.23.86-.3.38A2.75,2.75,0,0,0,64.58,51a4.73,4.73,0,0,1-.26,2.22,3.61,3.61,0,0,1-2.21-1.42s.11.9-.6.22-1.8-1.57-1.84-2.36a6.9,6.9,0,0,0,0,2.79s-.15.36-.34,0a5.12,5.12,0,0,0,.57,1.78s.56.68-.57.34a12.83,12.83,0,0,0,1.76,3s.58.83-.68.53a8.42,8.42,0,0,0,1.17,1.85,10.4,10.4,0,0,1,1.8,7s-3.78-2.25-4.05-4.87c0,0-.11.92-.78-.47a5.54,5.54,0,0,1-1.24-1.65,5.12,5.12,0,0,0-.94,1.45c-.15.56,0,.86-.93-.12s-.83-1.42-1.24-1.53c0,0-.11.9-.86-.71,0,0-.34.11-1.5-1.24,0,0,0,1.61-.6,1.76,0,0-.64.07-2.73-1.84,0,0,.3,1.84-1.31,0A6.49,6.49,0,0,1,46.15,57a4.91,4.91,0,0,0-1.46-1,10.13,10.13,0,0,1,.65,2.14,3.77,3.77,0,0,0,1.07,1.81s.56.66-.49.32a2.19,2.19,0,0,0,.71,1.5,5.1,5.1,0,0,1,1,1.09s0,.82-1.73,0c0,0,.49,2.09,1.58,2.54,0,0,0,.08-.25,0a10.57,10.57,0,0,1,1.24,1.51,15.74,15.74,0,0,0,1.21,1.62s-2.2,1.2-2.92,1.44a16.51,16.51,0,0,0-2.29,1.26l1.95.46s1.16.26.54.55c0,0,3.66.45,2,.93,0,0,.28.44,1.77.7s1.39.37,1.39.37.89.41-.19,1.14a3.47,3.47,0,0,0,1.85.61c1.36.17,3,2.25,3,2.25A7.46,7.46,0,0,1,52,80a3.92,3.92,0,0,0-2.41.57s1.24.34-.19.82a8,8,0,0,1-2.88.71s.75.68-.64.72a36,36,0,0,0-3.69,1.53s.28.42,1.41.4,3.06,0,3.06,0,1.4-.12.56.5a5.26,5.26,0,0,0,1.52,0s2.61-.11,1,1.29a33.38,33.38,0,0,1,4.92-.25s.25,1.91-.23,2.36A4,4,0,0,0,56,87.7s.28,0,.22.28a11,11,0,0,0,2.19-1.29,3,3,0,0,1,2.79-.48,20.4,20.4,0,0,0-.79,3.43s.64-.7,1.07-.65c0,0,.64-.53.64-.19l1.18-.9s.54-.68.4.11a9.27,9.27,0,0,0,1.37-1.52c.71-.95,3.63-2.27,3.63-2.27L70,83.8S69.68,98,70.05,100c.2,1.07.22,1.69.31,2.34h.53l.3,0h0a24.87,24.87,0,0,1-.6-7.23c.25-7.08-.39-7.5.39-10.71a24.33,24.33,0,0,1,4.55,4.86s-.11-1.85,1.69,1c0,0,.17-.62.73.12,0,0,.45-.29,1,.39,0,0,.56.39.67-.06a11.9,11.9,0,0,0-.73-3.26s1.24-1.35,4.72,1a2.3,2.3,0,0,1,1.74.73,4.48,4.48,0,0,0-.56-2.36,4.8,4.8,0,0,1,3.27.12s1,.33,1.17.11c0,0-1.74-1.63,2.3-1.35C91.51,85.65,90.84,85.26,92.92,85.2Z"/><path class="d" d="M58.73,59.6a13.31,13.31,0,0,0-8.5.64l-.24.11,0,.27a38.86,38.86,0,0,1-.65,9.61c0,.07-.9,6.54-3.5,10.84L45,82.45l5.61-3.6,0-.14s1.1-4,1.67-7.69a18.86,18.86,0,0,0,2.47-.34,23.24,23.24,0,0,0,1.07,8.23l0,.14,5.12,2.65-.59-1.08A21.59,21.59,0,0,1,57.7,69.78,7.07,7.07,0,0,0,62,64h0C62.2,61.84,61.12,60.34,58.73,59.6ZM53.1,62a7.31,7.31,0,0,1,3.2-.24s2.57.2,2.69,1.67a3.71,3.71,0,0,1-1.57,3.24,6.64,6.64,0,0,1-4.55,1.51A50.34,50.34,0,0,0,53.1,62Z"/><path class="d" d="M89.91,59.6a13.28,13.28,0,0,0-8.5.64l-.24.11,0,.27a38.86,38.86,0,0,1-.65,9.61c0,.07-.9,6.54-3.51,10.84l-.83,1.38,5.61-3.6,0-.14A77.19,77.19,0,0,0,83.52,71,18.86,18.86,0,0,0,86,70.68a23.69,23.69,0,0,0,1.06,8.23l.06.14,5.12,2.65-.59-1.08a21.61,21.61,0,0,1-2.76-10.84A7.07,7.07,0,0,0,93.14,64h0C93.38,61.84,92.3,60.34,89.91,59.6ZM84.28,62a7.31,7.31,0,0,1,3.2-.24s2.56.2,2.69,1.67a3.71,3.71,0,0,1-1.57,3.24,6.64,6.64,0,0,1-4.55,1.51A52.58,52.58,0,0,0,84.28,62Z"/><path class="d" d="M78.21,70.56l-4.88,3.11,0,.12s-1.4,3.82-4.15,4.54a1.6,1.6,0,0,1-1.46-.21c-1-.79-1-2.92-1-3a27.06,27.06,0,0,1,1-9.68c.6-1.93,1.59-3,3-3.1,0,0,2.56-.22,3.34,3.68l0,.16,3.44,2.18-.25-.93s-.59-2.18-1-3.47c-.54-1.65-1.36-4.13-4.56-4.49-4.91-.55-6.83,5.18-6.85,5.24C64.6,65,62.25,72,63.86,78a4.71,4.71,0,0,0,1.33,2.28A4,4,0,0,0,68,81.34a6.21,6.21,0,0,0,2.72-.7A8.6,8.6,0,0,0,75,76.34c.82-1.64,2.44-4.41,2.46-4.44Z"/><text class="j" transform="translate(161.12 51.36)">R<tspan class="k" x="20.48" y="0">E</tspan><tspan class="l" x="36.74" y="0">A</tspan><tspan class="m" x="58.85" y="0">L</tspan><tspan class="l"><tspan x="0" y="30">CA</tspan><tspan class="n" x="42.24" y="30">N</tspan><tspan x="64.61" y="30">A</tspan><tspan class="o" x="86.72" y="30">D</tspan><tspan x="109.63" y="30">IA</tspan><tspan class="m" x="139.26" y="30">N</tspan></tspan><tspan x="0" y="60">R</tspan><tspan class="p" x="20.48" y="60">E</tspan><tspan class="q" x="38.02" y="60">C</tspan><tspan x="57.98" y="60">R</tspan><tspan class="r" x="78.46" y="60">E</tspan><tspan class="s" x="94.72" y="60">A</tspan><tspan class="l" x="112.67" y="60">TIO</tspan><tspan class="t" x="160.89" y="60">N</tspan></text><rect class="d" x="147.62" y="18.91" width="5" height="103.33"/></g></svg>