<svg xmlns="http://www.w3.org/2000/svg" xmlns:xlink="http://www.w3.org/1999/xlink" viewBox="0 0 346.47 141.15"><defs><style>.a{isolation:isolate;}.b{fill:url(#a);}.c{fill:#0a0a0a;}.d,.i,.j{fill:#003c4e;}.e{fill:url(#b);}.f{opacity:0.66;}.g{fill:#fff;}.h{fill:url(#c);}.i{opacity:0.4;mix-blend-mode:multiply;}.j{font-size:32px;font-family:Montserrat-Black, Montserrat;}.j,.n{letter-spacing:-0.11em;}.k{letter-spacing:-0.16em;}.l{letter-spacing:-0.11em;}.m{letter-spacing:-0.09em;}.o{letter-spacing:-0.11em;}.p{letter-spacing:-0.12em;}.q{letter-spacing:-0.12em;}.r{letter-spacing:-0.17em;}.s{letter-spacing:-0.24em;}.t{letter-spacing:-0.09em;}</style><radialGradient id="a" cx="69.85" cy="70.58" r="63.38" gradientUnits="userSpaceOnUse"><stop offset="0.22" stop-color="#fff"/><stop offset="0.28" stop-color="#fcfcfc"/><stop offset="0.31" stop-color="#f4f4f4"/><stop offset="0.34" stop-color="#e6e6e6"/><stop offset="0.37" stop-color="#d1d1d1"/><stop offset="0.4" stop-color="#b7b7b7"/><stop offset="0.42" stop-color="#979797"/><stop offset="0.44" stop-color="#717171"/><stop offset="0.45" stop-color="#555"/><stop offset="0.47" stop-color="#5c5c5c"/><stop offset="0.51" stop-color="#727272"/><stop offset="0.56" stop-color="#818181"/><stop offset="0.61" stop-color="#8a8a8a"/><stop offset="0.69" stop-color="#8d8d8d"/><stop offset="0.73" stop-color="#888"/><stop offset="0.79" stop-color="#797979"/><stop offset="0.85" stop-color="#606060"/><stop offset="0.91" stop-color="#3d3d3d"/><stop offset="0.98" stop-color="#111"/><stop offset="1"/></radialGradient><radialGradient id="b" cx="69.84" cy="70.54" r="66.98" gradientUnits="userSpaceOnUse"><stop offset="0.44" stop-color="#003c4e"/><stop offset="0.47" stop-color="#396674"/><stop offset="0.5" stop-color="#6d8d96"/><stop offset="0.53" stop-color="#99adb3"/><stop offset="0.56" stop-color="#bac6c9"/><stop offset="0.59" stop-color="#d2d8d9"/><stop offset="0.62" stop-color="#e1e2e3"/><stop offset="0.64" stop-color="#e6e6e6"/><stop offset="0.67" stop-color="#dcdfe0"/><stop offset="0.73" stop-color="#c2cbce"/><stop offset="0.8" stop-color="#97acb2"/><stop offset="0.88" stop-color="#5c808b"/><stop offset="0.98" stop-color="#12495a"/><stop offset="1" stop-color="#003c4e"/></radialGradient><radialGradient id="c" cx="69.82" cy="70.53" r="37" gradientUnits="userSpaceOnUse"><stop offset="0.68" stop-color="#f2f2f2"/><stop offset="0.71" stop-color="#eceeee"/><stop offset="0.75" stop-color="#dbe1e3"/><stop offset="0.8" stop-color="#c0ccd0"/><stop offset="0.85" stop-color="#99afb6"/><stop offset="0.9" stop-color="#678a94"/><stop offset="0.96" stop-color="#2c5d6c"/><stop offset="1" stop-color="#003c4e"/></radialGradient></defs><title>1 - RCRLogo</title><g class="a"><path class="b" d="M118,38.44l1.66-2.06a4,4,0,0,0,0-4.89c-.76-1-1.5-1.92-1.77-2.23l-.56-.64c-.64-.73-1.3-1.44-2-2.14l-.72-.75-.41-.39C106.47,22.12,102,22.48,102,22.48l.75-2.58a4,4,0,0,0-1.8-4.52l-.9-.51-.74-.39c-.81-.44-1.64-.83-2.47-1.23l-.25-.13L96.28,13c-.67-.31-1.34-.6-2-.87l-.72-.31c-8.41,0-12.39,2-12.39,2l-.29-2.64a4,4,0,0,0-3.44-3.49c-1.27-.15-2.54-.3-3-.33L73.08,7.3c-1,0-1.94-.09-2.92-.11H70l-.74,0c-7.8,3.22-10.71,6.63-10.71,6.63L57.29,11.5a4,4,0,0,0-4.51-1.9c-1.2.33-2.39.67-2.88.83s-1,.36-1.56.55-1.21.44-1.81.68-1.05.43-1.57.66c-5.9,5.91-7.27,10.14-7.27,10.14l-2-1.64a3.92,3.92,0,0,0-4.89,0c-1,.74-1.88,1.47-2.2,1.74l-.63.55c-.73.65-1.44,1.3-2.14,2l-.75.72c-.16.15-.3.31-.45.47C21.37,34,21.73,38.43,21.73,38.43l-2.51-.74a4,4,0,0,0-4.54,1.83c-.59,1-1.17,2.06-1.31,2.33l-.26.54-.51,1c-.18.38-.35.77-.53,1.16-.36.8-.68,1.62-1,2.44,0,8.32,2,12.27,2,12.27l-2.64.28A3.94,3.94,0,0,0,7,63a61.39,61.39,0,0,0-.48,6.92v.5c0,.26,0,.53,0,.8C9.7,79,13.1,81.86,13.1,81.86l-2.31,1.27a3.93,3.93,0,0,0-1.91,4.51c.33,1.21.66,2.38.78,2.72s.18.55.28.82l.32.93c.22.6.44,1.2.68,1.8h0c.21.51.42,1,.64,1.52,5.92,5.91,10.15,7.27,10.15,7.27l-1.66,2.06a4,4,0,0,0,0,4.9c.76,1,1.5,1.91,1.78,2.23l.55.63c.64.73,1.3,1.44,2,2.14.24.25.48.51.72.75l.41.39c7.77,3.23,12.24,2.87,12.24,2.87l-.76,2.57a3.94,3.94,0,0,0,1.8,4.52c.37.22.7.4.9.51.52.28,1,.54,1.54.85a7.79,7.79,0,0,0,1.4.66c.18.06.35.16.53.24l.32.15c.68.31,1.38.6,2.07.89l.66.28c8.41,0,12.39-2,12.39-2l.29,2.64a4,4,0,0,0,3.44,3.49c1.28.15,2.55.3,3,.34l1.31.07c1,.05,1.95.09,2.92.11h.14l.75,0c7.79-3.22,10.7-6.63,10.7-6.63l1.28,2.34a4,4,0,0,0,4.51,1.91c1.2-.34,2.39-.68,2.88-.84s1-.36,1.56-.55,1.21-.44,1.81-.68,1-.43,1.57-.66c5.9-5.91,7.27-10.14,7.27-10.14l2,1.65a4,4,0,0,0,4.89,0c1-.75,1.88-1.48,2.2-1.75l.64-.55c.72-.65,1.44-1.3,2.14-2l.75-.72.45-.47c3.2-7.74,2.84-12.19,2.84-12.19l2.51.74a4,4,0,0,0,4.54-1.83c.6-1,1.17-2.06,1.31-2.33l.27-.54c.17-.34.34-.68.5-1s.35-.77.53-1.16c.36-.8.68-1.62,1-2.44,0-8.32-2-12.27-2-12.27l2.64-.28a4,4,0,0,0,3.5-3.44,63.82,63.82,0,0,0,.47-6.92c0-.17,0-.33,0-.5s0-.53,0-.8c-3.21-7.74-6.61-10.63-6.61-10.63L128.92,58a3.94,3.94,0,0,0,1.9-4.51c-.33-1.21-.66-2.38-.77-2.72s-.19-.55-.29-.82-.21-.62-.32-.93c-.22-.6-.44-1.2-.68-1.8h0c-.2-.51-.42-1-.64-1.52C122.21,39.81,118,38.44,118,38.44Z"/><path class="c" d="M118.82,39.29c4.32-5.38,2.39-8.35-2.1-13.13-3.37-3.57-9.81-5.17-14.71-4.88l1.15,1.51c1.81-6.17-.67-8.28-6.28-10.85-4.85-2.23-11.5-1.48-16.34.86l1.81,1c-.22-2-.2-4.29-1.75-5.83-2.25-2.23-6.8-2-9.71-2-4.57.07-10.11,3.55-13.17,7l1.89.24c-.94-1.72-1.75-3.62-3.64-4.51-2.93-1.39-7.06.7-9.76,1.77-4.28,1.7-8.17,7.3-9.68,11.64l2-.53c-5.35-4.3-8.33-2.39-13.08,2.09-3.6,3.39-5.22,9.79-4.93,14.73l1.52-1.16c-2-.57-4-1.4-6-.49-2.82,1.29-4.11,5.16-5.25,7.8-1.88,4.34-.8,11,1.28,15.31l1-1.8c-2.05.22-4.24.2-5.83,1.75C5,62,5.1,67.1,5.28,69.93c.29,4.4,3.62,9.8,7,12.78l.24-1.88c-6.12,3.34-5.16,7.4-2.71,13.41,1.74,4.25,7.29,8.12,11.63,9.63l-.53-2c-4.32,5.37-2.39,8.35,2.1,13.12,3.37,3.58,9.81,5.17,14.72,4.89l-1.16-1.52c-1.88,6.41.94,8.49,6.8,11.08,4.62,2,11.25,1.12,15.82-1.09l-1.81-1c.22,2,.2,4.29,1.75,5.83,2.25,2.23,6.8,2,9.71,2,4.57-.07,10.11-3.55,13.17-7l-1.89-.25c1,1.72,1.75,3.62,3.64,4.51,2.93,1.39,7.06-.7,9.76-1.77,4.28-1.7,8.17-7.3,9.68-11.64l-2,.53c5.35,4.3,8.33,2.39,13.08-2.09,3.6-3.39,5.22-9.79,4.93-14.73l-1.52,1.16c2,.57,4,1.4,6,.49,2.82-1.29,4.11-5.16,5.25-7.8,1.88-4.34.8-11-1.28-15.31l-1,1.8c2.06-.22,4.24-.2,5.84-1.74,2.26-2.2,2.15-7.27,2-10.1-.29-4.4-3.61-9.8-7-12.78l-.24,1.88c6.12-3.34,5.16-7.4,2.71-13.41-1.74-4.24-7.29-8.12-11.63-9.63-1.46-.51-2.09,1.81-.64,2.31a22.83,22.83,0,0,1,8.29,5.68c3.24,3.51,4.84,10.37.06,13a1.21,1.21,0,0,0-.24,1.89,23.15,23.15,0,0,1,4.93,7.15c2.2,4.52,2.14,12.7-4.08,13.37a1.23,1.23,0,0,0-1,1.81,21.43,21.43,0,0,1,1.78,9c-.07,4.89-3.12,11.86-9.06,10.13a1.21,1.21,0,0,0-1.52,1.15,23.76,23.76,0,0,1-1.84,9.34c-1.71,4.51-7.6,9.38-12.07,5.78a1.22,1.22,0,0,0-2,.53A22.07,22.07,0,0,1,95.74,126c-3.58,3.51-10.65,6-13.57.68a1.21,1.21,0,0,0-1.89-.24,23.6,23.6,0,0,1-8,5.33c-4.43,2-11.94,1.2-12.56-4.48a1.21,1.21,0,0,0-1.8-1c-5.74,2.77-22.07,2.87-19.1-7.29a1.2,1.2,0,0,0-1.15-1.51,24.19,24.19,0,0,1-9.38-1.86c-4.52-1.69-9.33-7.6-5.74-12.06a1.21,1.21,0,0,0-.53-2,22.83,22.83,0,0,1-8.29-5.68c-3.24-3.51-4.84-10.36-.06-13A1.22,1.22,0,0,0,14,81,23,23,0,0,1,9,73.86c-2.2-4.52-2.14-12.7,4.08-13.37a1.22,1.22,0,0,0,1-1.81,21.43,21.43,0,0,1-1.78-9c.08-4.89,3.13-11.86,9.06-10.12a1.22,1.22,0,0,0,1.52-1.16,23.79,23.79,0,0,1,1.84-9.34c1.71-4.51,7.6-9.38,12.07-5.78a1.22,1.22,0,0,0,2-.53A22.07,22.07,0,0,1,44,15.13c3.58-3.51,10.65-6,13.58-.68a1.2,1.2,0,0,0,1.88.24,23.69,23.69,0,0,1,8-5.33c4.42-2,11.93-1.2,12.55,4.48a1.22,1.22,0,0,0,1.8,1c5.66-2.74,22.09-2.93,19.1,7.28A1.21,1.21,0,0,0,102,23.68a24,24,0,0,1,9.37,1.85c4.52,1.69,9.33,7.6,5.74,12.06C116.16,38.78,117.85,40.49,118.82,39.29Z"/><polygon class="d" points="70.34 140.47 51.59 114.23 20.43 120.16 26.3 88.79 0.55 70.09 26.45 52.83 20.53 21.68 51.89 27.55 70.1 0.68 88.13 27 119.29 21.08 113.42 52.45 139.6 70.38 113.27 88.41 119.19 119.56 87.83 113.69 70.34 140.47"/><polygon class="e" points="70.08 133.51 53.18 109.87 25.11 115.21 30.39 86.95 7.2 70.1 30.53 54.55 25.19 26.48 53.45 31.77 69.86 7.56 86.11 31.28 114.18 25.94 108.89 54.2 132.48 70.36 108.75 86.6 114.09 114.67 85.83 109.39 70.08 133.51"/><path class="d" d="M69.86,12.62,84.43,33.89l.37.54.64-.12,25.17-4.78-4.74,25.34-.12.64.54.37,21.15,14.49L106.16,84.94l-.54.37.12.64,4.78,25.16-25.34-4.74-.66-.12-.36.56L70,128.45,54.86,107.24l-.37-.52-.63.12L28.7,111.62l4.74-25.35.11-.62L33,85.28,12.22,70.16,33.14,56.22l.55-.37-.13-.65L28.78,30l25.35,4.74.64.12.37-.54L69.86,12.62m0-1.77L54.31,33.79l-26.79-5,5.06,26.6L10.47,70.12l22,16-5,26.78,26.61-5.05,16,22.41L85,107.36l26.78,5-5.06-26.61,22.49-15.39L106.85,55.06l5-26.79-26.6,5.06L69.86,10.85Z"/><g class="f"><path class="g" d="M69.86,10.85l15.4,22.48,26.6-5.06-5,26.79,22.36,15.31L106.72,85.76l5.06,26.61-26.78-5L70.06,130.23l-16-22.41-26.61,5.05,5-26.78-22-16L32.58,55.38l-5.06-26.6,26.79,5L69.86,10.85m0-3.56L68.2,9.72,53.39,31.58l-25.5-4.77L25,26.28l.55,2.87,4.81,25.31-21,14L7,70.05l2.32,1.69L30.26,87l-4.78,25.55-.54,2.88,2.88-.55L53.16,110l15.28,21.37,1.7,2.38,1.6-2.45,14.2-21.75,25.47,4.76,2.88.54-.55-2.88-4.81-25.32L130.34,72l2.41-1.65-2.41-1.65L109.06,54.14l4.77-25.5.54-2.88-2.88.55L86.17,31.12,71.51,9.72,69.85,7.29Z"/></g><circle class="d" cx="70.08" cy="70.58" r="35.06"/><circle class="h" cx="69.82" cy="70.53" r="31.76"/><path class="i" d="M92.81,85.2A30.51,30.51,0,0,0,96.07,85l-3.65-1.8s-1.13-.28-.17-.51l-2.08-.9s-.9-.45.11-.84a3.92,3.92,0,0,0-2.35-.28c-1.64.17-3.66-1.8-3.66-1.8A4.32,4.32,0,0,1,87.42,76a4.31,4.31,0,0,0,1.68-.28s-1.82-.19-.28-.71,2.55-.49,2.81-.79c0,0-1.57-.26,1.39-1.35a12.46,12.46,0,0,0,2-.67s-3-.84-4.35-1.35c-1.61-.6-2-.9-.45-2.4s1.28-1.94,1.28-1.94a24.57,24.57,0,0,0,2.21-2,6.71,6.71,0,0,1-2-.41,10.89,10.89,0,0,1,1.58-2.81s-1.28.33-.3-.94a2.12,2.12,0,0,0,.6-.82s-.6.45-.11-.49a25.42,25.42,0,0,0,1.08-2.81,14.45,14.45,0,0,0-2.06,1.8,2.94,2.94,0,0,1-1.53,1s-.49.26-.38-.37l-1.24.86S88,61,88.11,59.43a3.31,3.31,0,0,0-1.24,1.2s-2.25,2.32-2.21,1a2.31,2.31,0,0,1-.15-1.16,12.29,12.29,0,0,0-2.21,2.21,14.83,14.83,0,0,1-3.07,3.41,11.52,11.52,0,0,0-2.4,1,8.14,8.14,0,0,1,.49-5.32l.87-2.17a3.38,3.38,0,0,0,.25-1.3h0a1.14,1.14,0,0,1-.9.19,6.57,6.57,0,0,1,1-2.67,2.19,2.19,0,0,0,.32-1,.59.59,0,0,1,.05-.19s-.19.37-.75.18a4.82,4.82,0,0,1,.71-1.76.7.7,0,0,1,0-.52s-.71.41-.11-.56.19-1.61.94-3.19a13.65,13.65,0,0,0-3.07,2.25s-.27,0-.16-.69a3.28,3.28,0,0,0-1.08,1.18c-.26.63-2,1-2,1a4.6,4.6,0,0,1-.15-2.76s-.48.88-.33-.58,0-.93,0-.93.11-1.17-.23-1.54A1.75,1.75,0,0,1,71.21,48,7.06,7.06,0,0,1,71,45.27s-.49.45-.83.22a2.45,2.45,0,0,1,0-1.27.47.47,0,0,1-.41,0,2.6,2.6,0,0,0-.22-1.16,2.15,2.15,0,0,1,0-1.36,1.34,1.34,0,0,0-.72,1.17A1.34,1.34,0,0,1,68.37,44a.37.37,0,0,1,0-.37,4.13,4.13,0,0,0-.87,1.64s-.33.08-.6-.6c0,0-.18,2.59-.78,3.41a5.33,5.33,0,0,1-1.88-1.56,10.68,10.68,0,0,0,.3,2.46s.23.86-.3.38A2.85,2.85,0,0,0,64.47,51a4.68,4.68,0,0,1-.25,2.22A3.62,3.62,0,0,1,62,51.75s.11.9-.6.22-1.8-1.57-1.84-2.36a7.11,7.11,0,0,0,0,2.79s-.15.36-.33,0a5.05,5.05,0,0,0,.56,1.78s.56.68-.56.34a12.44,12.44,0,0,0,1.76,3s.57.83-.69.53a8.42,8.42,0,0,0,1.17,1.85,10.4,10.4,0,0,1,1.8,7s-3.78-2.25-4-4.87c0,0-.12.92-.79-.47a5.54,5.54,0,0,1-1.24-1.65,4.94,4.94,0,0,0-.93,1.45c-.15.56,0,.86-.94-.12s-.83-1.42-1.24-1.53c0,0-.11.9-.86-.71,0,0-.34.11-1.5-1.24,0,0,0,1.61-.6,1.76,0,0-.63.07-2.73-1.84,0,0,.3,1.84-1.31,0A6.49,6.49,0,0,1,46,57a4.91,4.91,0,0,0-1.46-1,10.13,10.13,0,0,1,.65,2.14,3.77,3.77,0,0,0,1.07,1.81s.56.66-.49.32a2.19,2.19,0,0,0,.71,1.5,5.1,5.1,0,0,1,1,1.09s0,.82-1.72,0c0,0,.48,2.09,1.57,2.54,0,0,0,.08-.24,0a10.7,10.7,0,0,1,1.23,1.51,15.74,15.74,0,0,0,1.21,1.62s-2.2,1.2-2.92,1.44a16.51,16.51,0,0,0-2.29,1.26l2,.46s1.15.26.53.55c0,0,3.67.45,2,.93,0,0,.28.44,1.77.7s1.39.37,1.39.37.89.41-.19,1.14A3.47,3.47,0,0,0,53.6,76c1.36.17,3,2.25,3,2.25A7.46,7.46,0,0,1,51.93,80a3.92,3.92,0,0,0-2.41.57s1.24.34-.19.82a8,8,0,0,1-2.88.71s.75.68-.64.72a36,36,0,0,0-3.69,1.53s.28.42,1.41.4,3.06,0,3.06,0,1.41-.12.56.5a5.26,5.26,0,0,0,1.52,0s2.61-.11,1,1.29a33.38,33.38,0,0,1,4.92-.25s.25,1.91-.23,2.36a4,4,0,0,0,1.55-.9s.28,0,.22.28a10.7,10.7,0,0,0,2.19-1.29,3,3,0,0,1,2.79-.48,20.4,20.4,0,0,0-.79,3.43s.65-.7,1.07-.65c0,0,.64-.53.64-.19l1.18-.9s.54-.68.4.11A9.27,9.27,0,0,0,65,86.49c.71-.95,3.63-2.27,3.63-2.27l1.29-.42S69.57,98,69.94,100c.2,1.07.23,1.69.31,2.34h.53l.3,0h0A24.87,24.87,0,0,1,70.5,95c.25-7.08-.39-7.5.39-10.71a24.57,24.57,0,0,1,4.56,4.86s-.12-1.85,1.68,1c0,0,.17-.62.73.12,0,0,.45-.29,1,.39,0,0,.56.39.67-.06a11.9,11.9,0,0,0-.73-3.26S80,86,83.48,88.4a2.3,2.3,0,0,1,1.74.73,4.48,4.48,0,0,0-.56-2.36,4.8,4.8,0,0,1,3.27.12s1,.33,1.17.11c0,0-1.74-1.63,2.3-1.35C91.4,85.65,90.73,85.26,92.81,85.2Z"/><path class="d" d="M58.62,59.6a13.3,13.3,0,0,0-8.5.64l-.24.11,0,.27a38.86,38.86,0,0,1-.65,9.61c0,.07-.9,6.54-3.5,10.84l-.84,1.38,5.61-3.6,0-.14s1.1-4,1.68-7.69a18.94,18.94,0,0,0,2.46-.34,23.24,23.24,0,0,0,1.07,8.23l0,.14,5.12,2.65-.59-1.08a21.59,21.59,0,0,1-2.76-10.84A7.07,7.07,0,0,0,61.85,64h0C62.09,61.84,61,60.34,58.62,59.6ZM53,62a7.34,7.34,0,0,1,3.21-.24s2.56.2,2.68,1.67a3.73,3.73,0,0,1-1.56,3.24,6.68,6.68,0,0,1-4.56,1.51A50.34,50.34,0,0,0,53,62Z"/><path class="d" d="M89.8,59.6a13.3,13.3,0,0,0-8.5.64l-.24.11,0,.27a38.86,38.86,0,0,1-.65,9.61c0,.07-.9,6.54-3.5,10.84l-.84,1.38,5.61-3.6,0-.14s1.1-4,1.67-7.69a18.86,18.86,0,0,0,2.47-.34A23.24,23.24,0,0,0,87,78.91l0,.14,5.12,2.65-.59-1.08a21.61,21.61,0,0,1-2.76-10.84A7.07,7.07,0,0,0,93,64h0C93.27,61.84,92.19,60.34,89.8,59.6ZM84.17,62a7.31,7.31,0,0,1,3.2-.24s2.56.2,2.69,1.67a3.71,3.71,0,0,1-1.57,3.24,6.64,6.64,0,0,1-4.55,1.51A50.44,50.44,0,0,0,84.17,62Z"/><path class="d" d="M78.1,70.56l-4.88,3.11,0,.12s-1.4,3.82-4.15,4.54a1.6,1.6,0,0,1-1.46-.21c-1-.79-1-2.92-1-3a27.06,27.06,0,0,1,1-9.68c.6-1.93,1.59-3,3-3.1,0,0,2.57-.22,3.34,3.68l0,.16,3.45,2.18L77,67.44s-.59-2.18-1-3.47c-.54-1.65-1.36-4.13-4.56-4.49-4.89-.55-6.83,5.18-6.85,5.24C64.49,65,62.14,72,63.75,78a4.71,4.71,0,0,0,1.33,2.28,4,4,0,0,0,2.77,1.08,6.21,6.21,0,0,0,2.72-.7,8.62,8.62,0,0,0,4.3-4.3c.81-1.64,2.43-4.41,2.45-4.44Z"/><text class="j" transform="translate(161.12 51.36)">R<tspan class="k" x="20.48" y="0">E</tspan><tspan class="l" x="36.74" y="0">A</tspan><tspan class="m" x="58.85" y="0">L</tspan><tspan class="l"><tspan x="0" y="30">CA</tspan><tspan class="n" x="42.24" y="30">N</tspan><tspan x="64.61" y="30">A</tspan><tspan class="o" x="86.72" y="30">D</tspan><tspan x="109.63" y="30">IA</tspan><tspan class="m" x="139.26" y="30">N</tspan></tspan><tspan x="0" y="60">R</tspan><tspan class="p" x="20.48" y="60">E</tspan><tspan class="q" x="38.02" y="60">C</tspan><tspan x="57.98" y="60">R</tspan><tspan class="r" x="78.46" y="60">E</tspan><tspan class="s" x="94.72" y="60">A</tspan><tspan class="l" x="112.67" y="60">TIO</tspan><tspan class="t" x="160.89" y="60">N</tspan></text><rect class="d" x="147.62" y="18.91" width="5" height="103.33"/></g></svg>